<svg xmlns="http://www.w3.org/2000/svg" font-family="-apple-system, system-ui, sans-serif" viewBox="0 0 900 260"><defs><marker id="arrowhead" markerHeight="7" markerWidth="10" orient="auto" refX="10" refY="3.5"><path fill="#666" d="m0 0 10 3.5L0 7z"/></marker><style>.box{fill:#fff;stroke:#5B9BD5;stroke-width:2}.label,.sub{fill:#252a49;font-size:13px;text-anchor:middle}.sub{fill:#888;font-size:10px}.arrow{stroke:#666;stroke-width:2;fill:none;marker-end:url(#arrowhead)}</style></defs><rect width="900" height="260" fill="#fff"/><rect width="140" height="60" x="20" y="100" class="box" rx="8"/><text x="90" y="126" class="label">RSS Feeds</text><text x="90" y="142" class="sub">15 sources</text><text x="90" y="155" class="sub">incl. Hacker News</text><path d="M162 130h26" class="arrow"/><rect width="170" height="70" x="190" y="95" class="box" rx="8"/><text x="275" y="118" class="label">worker.js</text><text x="275" y="134" class="sub">parse items + dates</text><text x="275" y="148" class="sub">cluster · bias · blindspot</text><path d="M362 130h26" class="arrow"/><rect width="150" height="50" x="390" y="105" class="box" rx="8"/><text x="465" y="127" class="label">Cache API</text><text x="465" y="143" class="sub">10 min TTL</text><path d="M542 130h26" class="arrow"/><rect width="180" height="70" x="570" y="95" class="box" rx="8"/><text x="660" y="118" class="label">/api/stories</text><text x="660" y="134" class="sub">latest[] flat reader</text><text x="660" y="148" class="sub">stories[] clustered</text><path d="M762 130h26" class="arrow"/><rect width="102" height="70" x="780" y="95" class="box" rx="8"/><text x="831" y="118" class="label">Browser</text><text x="831" y="134" class="sub">Latest +</text><text x="831" y="148" class="sub">bias · source</text></svg>
