<svg xmlns="http://www.w3.org/2000/svg" font-family="-apple-system, system-ui, sans-serif" viewBox="0 0 900 200"><defs><marker id="arrowhead" markerHeight="7" markerWidth="10" orient="auto" refX="10" refY="3.5"><path fill="#666" d="m0 0 10 3.5L0 7z"/></marker><style>.box{fill:#fff;stroke:#5B9BD5;stroke-width:2}.label,.sub{fill:#252a49;font-size:13px;text-anchor:middle}.sub{fill:#888;font-size:10px}.arrow{stroke:#666;stroke-width:2;fill:none;marker-end:url(#arrowhead)}</style></defs><rect width="900" height="200" fill="#fff"/><rect width="140" height="50" x="20" y="75" class="box" rx="8"/><text x="90" y="97" class="label">RSS Feeds</text><text x="90" y="113" class="sub">14 outlets</text><path d="M162 100h26" class="arrow"/><rect width="160" height="60" x="190" y="70" class="box" rx="8"/><text x="270" y="92" class="label">worker.js</text><text x="270" y="108" class="sub">parse + cluster</text><text x="270" y="122" class="sub">bias tag + blindspot</text><path d="M352 100h26" class="arrow"/><rect width="160" height="50" x="380" y="75" class="box" rx="8"/><text x="460" y="97" class="label">Cache API</text><text x="460" y="113" class="sub">10 min TTL</text><path d="M542 100h26" class="arrow"/><rect width="170" height="50" x="570" y="75" class="box" rx="8"/><text x="655" y="97" class="label">/api/stories</text><text x="655" y="113" class="sub">JSON response</text><path d="M742 100h26" class="arrow"/><rect width="130" height="50" x="770" y="75" class="box" rx="8"/><text x="835" y="97" class="label">Browser</text><text x="835" y="113" class="sub">bias bars + filters</text></svg>
